<svg xmlns="http://www.w3.org/2000/svg" width="140.999" height="83.977" viewBox="0 0 140.999 83.977">
  <g id="グループ_5276" data-name="グループ 5276" transform="translate(-117.002 -863)">
    <path id="交差_13" data-name="交差 13" d="M-1432.438,83.566A12.577,12.577,0,0,1-1445,71V57.946h140V71a12.577,12.577,0,0,1-12.562,12.563Z" transform="translate(1562.503 862.911)" fill="#d3d7da" stroke="rgba(0,0,0,0)" stroke-miterlimit="10" stroke-width="1"/>
    <g id="グループ_5137" data-name="グループ 5137" transform="translate(117.501 863)">
      <path id="パス_3693" data-name="パス 3693" d="M383.935,312H269.061A12.576,12.576,0,0,1,256.5,299.436V285.078a1.629,1.629,0,0,1,1.6-1.628,11.205,11.205,0,0,0,0-22.408,1.627,1.627,0,0,1-1.6-1.628V240.995a12.576,12.576,0,0,1,12.562-12.562H383.935A12.576,12.576,0,0,1,396.5,240.995V259.43a1.628,1.628,0,0,1-1.563,1.627,11.2,11.2,0,0,0,0,22.378,1.629,1.629,0,0,1,1.563,1.627v14.374A12.576,12.576,0,0,1,383.935,312Zm-124.18-25.408v12.845a9.317,9.317,0,0,0,9.306,9.307H383.935a9.317,9.317,0,0,0,9.306-9.307V286.543a14.455,14.455,0,0,1,0-28.594V240.995a9.317,9.317,0,0,0-9.306-9.306H269.061a9.317,9.317,0,0,0-9.306,9.306V257.9a14.46,14.46,0,0,1,0,28.689ZM394.869,259.43h0Z" transform="translate(-256.499 -228.433)" fill="#d3d7da"/>
    </g>
  </g>
</svg>
