<svg xmlns="http://www.w3.org/2000/svg" width="375.002" height="80" viewBox="0 0 375.002 80">
  <path id="パス_3791" data-name="パス 3791" d="M375.5,17.215A44.913,44.913,0,0,0,340.5.5c-16.071,0-30.9,14.191-30.9,14.191a10.579,10.579,0,0,1-14.45,0S280.322.5,264.251.5s-30.9,14.191-30.9,14.191a10.579,10.579,0,0,1-14.45,0S204.072.5,188,.5s-30.9,14.191-30.9,14.191a10.579,10.579,0,0,1-14.45,0S127.822.5,111.751.5s-30.9,14.191-30.9,14.191a10.579,10.579,0,0,1-14.45,0S51.572.5,35.5.5A44.913,44.913,0,0,0,.5,17.215V80.5h375Z" transform="translate(-0.5 -0.5)" fill="#e8ebec"/>
</svg>
