<svg xmlns="http://www.w3.org/2000/svg" width="48" height="48" viewBox="0 0 48 48"><g transform="translate(-605 -1511)"><circle cx="24" cy="24" r="24" transform="translate(605 1511)" fill="#1877f2"/><path d="M33.371,16.685A16.685,16.685,0,1,0,14.079,33.168V21.508H9.842V16.685h4.237V13.01c0-4.182,2.491-6.492,6.3-6.492a25.658,25.658,0,0,1,3.735.325v4.106h-2.1a2.411,2.411,0,0,0-2.719,2.605v3.131H23.92l-.74,4.823H19.292v11.66A16.685,16.685,0,0,0,33.371,16.685Z" transform="translate(612.377 1518.329)" fill="#fff"/></g></svg>
