<svg xmlns="http://www.w3.org/2000/svg" width="45.36" height="28.722" viewBox="0 0 45.36 28.722">
  <g id="グループ_5231" data-name="グループ 5231" transform="translate(-27.641 -743.05)">
    <g id="グループ_5248" data-name="グループ 5248" transform="matrix(0.996, -0.087, 0.087, 0.996, -65.837, 6.893)">
      <g id="ticket_1_" data-name="ticket (1)" transform="matrix(0.966, -0.259, 0.259, 0.966, 28, 752.496)">
        <path id="パス_12" data-name="パス 12" d="M1.344,13.444V15.46a2.019,2.019,0,0,0,2.017,2.017H28.9a2.019,2.019,0,0,0,2.017-2.017V13.444h0a4.033,4.033,0,0,1,0-8.066V3.361A2.019,2.019,0,0,0,28.9,1.344H3.361A2.019,2.019,0,0,0,1.344,3.361V5.378a4.033,4.033,0,0,1,0,8.066Z" transform="translate(0 0)" fill="#fff"/>
      </g>
      <path id="パス_12-2" data-name="パス 12" d="M28.9,18.821H3.361A3.366,3.366,0,0,1,0,15.46V12.772A.672.672,0,0,1,.672,12.1h.672a2.689,2.689,0,1,0,0-5.378H.672A.672.672,0,0,1,0,6.05V3.361A3.366,3.366,0,0,1,3.361,0H28.9a3.366,3.366,0,0,1,3.361,3.361V6.05a.672.672,0,0,1-.672.672h-.672a2.689,2.689,0,0,0,0,5.378h.672a.672.672,0,0,1,.672.672V15.46A3.364,3.364,0,0,1,28.9,18.821ZM1.344,13.444V15.46a2.019,2.019,0,0,0,2.017,2.017H28.9a2.019,2.019,0,0,0,2.017-2.017V13.444h0a4.033,4.033,0,0,1,0-8.066V3.361A2.019,2.019,0,0,0,28.9,1.344H3.361A2.019,2.019,0,0,0,1.344,3.361V5.378a4.033,4.033,0,0,1,0,8.066Z" transform="matrix(0.966, -0.259, 0.259, 0.966, 28, 752.496)" fill="#1a69b2"/>
      <g id="グループ_5247" data-name="グループ 5247">
        <path id="パス_13" data-name="パス 13" d="M.672,2.689A.672.672,0,0,1,0,2.017V.672a.672.672,0,1,1,1.344,0V2.017A.672.672,0,0,1,.672,2.689Z" transform="matrix(0.966, -0.259, 0.259, 0.966, 38.389, 749.712)" fill="#1a69b2"/>
        <path id="パス_14" data-name="パス 14" d="M.672,9.306A.672.672,0,0,1,0,8.634V6.36a.672.672,0,0,1,1.344,0V8.635A.671.671,0,0,1,.672,9.306Zm0-5.687A.672.672,0,0,1,0,2.947V.672a.672.672,0,0,1,1.344,0V2.947A.672.672,0,0,1,.672,3.619Z" transform="matrix(0.966, -0.259, 0.259, 0.966, 39.62, 754.308)" fill="#1a69b2"/>
        <path id="パス_15" data-name="パス 15" d="M.672,2.689A.672.672,0,0,1,0,2.017V.672a.672.672,0,0,1,1.344,0V2.017A.672.672,0,0,1,.672,2.689Z" transform="matrix(0.966, -0.259, 0.259, 0.966, 42.564, 765.295)" fill="#1a69b2"/>
      </g>
    </g>
    <g id="パス_3785" data-name="パス 3785" transform="translate(55.075 753.725)" fill="#fff">
      <path d="M 8.962582588195801 17.17516326904297 C 4.434152603149414 17.17516326904297 0.7500025629997253 13.49101257324219 0.7500025629997253 8.962582588195801 C 0.7500025629997253 4.434152603149414 4.434152603149414 0.7500025629997253 8.962582588195801 0.7500025629997253 C 13.49101257324219 0.7500025629997253 17.17516326904297 4.434152603149414 17.17516326904297 8.962582588195801 C 17.17516326904297 13.49101257324219 13.49101257324219 17.17516326904297 8.962582588195801 17.17516326904297 Z" stroke="none"/>
      <path d="M 8.962582588195801 1.500001907348633 C 4.847702980041504 1.500001907348633 1.500001907348633 4.847702980041504 1.500001907348633 8.962582588195801 C 1.500001907348633 13.07746315002441 4.847702980041504 16.42516326904297 8.962582588195801 16.42516326904297 C 13.07746315002441 16.42516326904297 16.42516326904297 13.07746315002441 16.42516326904297 8.962582588195801 C 16.42516326904297 4.847702980041504 13.07746315002441 1.500001907348633 8.962582588195801 1.500001907348633 M 8.962582588195801 1.9073486328125e-06 C 13.91248321533203 1.9073486328125e-06 17.92516326904297 4.012682914733887 17.92516326904297 8.962582588195801 C 17.92516326904297 13.91248321533203 13.91248321533203 17.92516326904297 8.962582588195801 17.92516326904297 C 4.012682914733887 17.92516326904297 1.9073486328125e-06 13.91248321533203 1.9073486328125e-06 8.962582588195801 C 1.9073486328125e-06 4.012682914733887 4.012682914733887 1.9073486328125e-06 8.962582588195801 1.9073486328125e-06 Z" stroke="none" fill="#1a69b2"/>
    </g>
    <path id="check_4_" data-name="check (4)" d="M16.437,5.592a.771.771,0,0,1,.065,1.1l-8.108,9a.771.771,0,0,1-1.1.045L2.6,11.317a.778.778,0,0,1,1.053-1.146l3.64,3.274a.771.771,0,0,0,1.088-.057l6.974-7.733a.771.771,0,0,1,1.081-.064Z" transform="translate(56.3 750.032)" fill="#1a69b2" fill-rule="evenodd"/>
  </g>
</svg>
