<svg xmlns="http://www.w3.org/2000/svg" width="32" height="30.178" viewBox="0 0 32 30.178">
  <g id="shopping-cart_2_" data-name="shopping-cart (2)" transform="translate(0.003 -0.379)">
    <path id="パス_1" data-name="パス 1" d="M99.764,322.332a3.811,3.811,0,1,0,3.811,3.811A3.811,3.811,0,0,0,99.764,322.332Zm0,6.221a2.41,2.41,0,1,1,2.41-2.41A2.41,2.41,0,0,1,99.764,328.553Zm0,0" transform="translate(-89.234 -299.398)" fill="#222426"/>
    <path id="パス_2" data-name="パス 2" d="M31.3,6.94H6.565l-.5-2.823A4.211,4.211,0,0,0,2.649.712L.821.39A.7.7,0,1,0,.575,1.77l1.835.322a2.8,2.8,0,0,1,2.27,2.27l2.48,13.991a3.5,3.5,0,0,0,3.447,2.893H25.32a3.494,3.494,0,0,0,3.356-2.487L31.968,7.844a.733.733,0,0,0-.105-.623A.709.709,0,0,0,31.3,6.94ZM27.338,18.345a2.087,2.087,0,0,1-2.011,1.492H10.615A2.091,2.091,0,0,1,8.548,18.1L6.818,8.334H30.364Zm0,0" transform="translate(0)" fill="#222426"/>
    <path id="パス_3" data-name="パス 3" d="M309.764,322.332a3.811,3.811,0,1,0,3.811,3.811A3.811,3.811,0,0,0,309.764,322.332Zm0,6.221a2.41,2.41,0,1,1,2.41-2.41A2.41,2.41,0,0,1,309.764,328.553Zm0,0" transform="translate(-284.522 -299.398)" fill="#222426"/>
  </g>
</svg>
