<svg xmlns="http://www.w3.org/2000/svg" width="48" height="48" viewBox="0 0 48 48">
  <g id="Black-Logo-Square" transform="translate(-4 -4)">
    <rect id="Rectangle" width="48" height="48" transform="translate(4 4)" fill="#fff" opacity="0"/>
    <path id="_" data-name="" d="M32.26,22.677a5.456,5.456,0,0,0,3.8-2.06,6.693,6.693,0,0,0,1.481-4.047,2.811,2.811,0,0,0-.053-.57,6.182,6.182,0,0,0-4.122,2.207,6.344,6.344,0,0,0-1.535,3.918,2.59,2.59,0,0,0,.054.515A2,2,0,0,0,32.26,22.677ZM27.8,44.934c1.731,0,2.5-1.2,4.658-1.2,2.195,0,2.677,1.159,4.6,1.159,1.892,0,3.159-1.8,4.354-3.568a16.447,16.447,0,0,0,1.927-4.1,6.334,6.334,0,0,1-3.748-5.849,6.583,6.583,0,0,1,3.016-5.518,6.525,6.525,0,0,0-5.55-2.869c-2.124,0-3.855,1.324-4.943,1.324-1.178,0-2.73-1.251-4.568-1.251-3.5,0-7.049,2.98-7.049,8.608a18.174,18.174,0,0,0,2.945,9.583C24.837,43.278,26.05,44.934,27.8,44.934Z" transform="translate(-3.921 -4.967)"/>
  </g>
</svg>
