<svg id="earth-grid-symbol" xmlns="http://www.w3.org/2000/svg" width="27.999" height="28" viewBox="0 0 27.999 28">
  <path id="パス_3594" data-name="パス 3594" d="M25.427,5.928c-.213-.3-.435-.594-.672-.877A13.974,13.974,0,0,0,14,0h-.034l-.048,0A13.979,13.979,0,0,0,3.245,5.051q-.353.425-.672.877a13.951,13.951,0,0,0,0,16.145c.213.3.437.594.672.877A13.977,13.977,0,0,0,13.918,28l.048,0H14a13.974,13.974,0,0,0,10.755-5.05c.235-.283.459-.577.672-.878a13.951,13.951,0,0,0,0-16.145ZM9.908,1.821A13.1,13.1,0,0,0,6.814,7.054,13.353,13.353,0,0,1,4.172,5.739,12.886,12.886,0,0,1,9.908,1.821ZM3.5,6.617a14.745,14.745,0,0,0,2.99,1.508,22.313,22.313,0,0,0-.766,5.756H1.151A12.777,12.777,0,0,1,3.5,6.617Zm-2.3,8.413h4.55a22.068,22.068,0,0,0,.743,4.844A14.662,14.662,0,0,0,3.5,21.384,12.764,12.764,0,0,1,1.194,15.03Zm2.982,7.228a13.433,13.433,0,0,1,2.638-1.312,13.085,13.085,0,0,0,3.094,5.233A12.882,12.882,0,0,1,4.176,22.258Zm9.25,4.551c-2.357-.323-4.392-2.74-5.545-6.222a21.232,21.232,0,0,1,5.545-.85Zm0-8.219a21.877,21.877,0,0,0-5.867.92,21.3,21.3,0,0,1-.664-4.479h6.531Zm0-4.709H6.87a21.684,21.684,0,0,1,.693-5.39,21.88,21.88,0,0,0,5.862.918v4.472Zm0-5.62a21.2,21.2,0,0,1-5.542-.848c1.153-3.48,3.186-5.9,5.542-6.223Zm13.422,5.62H22.211a22.3,22.3,0,0,0-.759-5.733A14.736,14.736,0,0,0,24.5,6.618,12.778,12.778,0,0,1,26.847,13.882ZM23.826,5.74a13.408,13.408,0,0,1-2.7,1.335,13.061,13.061,0,0,0-3.136-5.289A12.886,12.886,0,0,1,23.826,5.74ZM14.574,1.2c2.331.36,4.339,2.775,5.48,6.232a21.237,21.237,0,0,1-5.48.831Zm0,8.211a21.916,21.916,0,0,0,5.8-.9,21.633,21.633,0,0,1,.689,5.371H14.574Zm0,5.62h6.464a21.387,21.387,0,0,1-.659,4.461,21.918,21.918,0,0,0-5.8-.9V15.03Zm0,11.771V19.739a21.272,21.272,0,0,1,5.484.831C18.916,24.028,16.905,26.441,14.574,26.8Zm3.415-.587a13.051,13.051,0,0,0,3.138-5.288,13.423,13.423,0,0,1,2.7,1.333A12.891,12.891,0,0,1,17.989,26.214ZM24.5,21.384a14.7,14.7,0,0,0-3.051-1.531,22.06,22.06,0,0,0,.735-4.821H26.8A12.745,12.745,0,0,1,24.5,21.384Z" fill="#222426"/>
</svg>
