<svg xmlns="http://www.w3.org/2000/svg" width="29.193" height="29.582" viewBox="0 0 29.193 29.582">
  <path id="パス_3798" data-name="パス 3798" d="M17.779,28.412a.59.59,0,0,0,.588.588h5.3a.59.59,0,0,0,.588-.588V15.466a.59.59,0,0,1,.588-.588h3.531c.324,0,.4-.187.172-.416L15.253,1.172a.59.59,0,0,0-.832,0L9.616,5.977c-.229.229-.416.151-.416-.172V3.7a.59.59,0,0,0-.588-.588h-2.6a.59.59,0,0,0-.588.588V9.582a1.637,1.637,0,0,1-.416,1L1.131,14.462c-.229.229-.151.416.172.416H4.834a.59.59,0,0,1,.588.588V28.412A.59.59,0,0,0,6.011,29h5.3a.59.59,0,0,0,.588-.588V22.527a.59.59,0,0,1,.588-.588h4.707a.59.59,0,0,1,.588.588Z" transform="translate(-0.241 -0.168)" fill="#fff" stroke="#0c67bd" stroke-linecap="round" stroke-linejoin="round" stroke-width="1.5"/>
</svg>
