<svg xmlns="http://www.w3.org/2000/svg" width="23.57" height="30" viewBox="0 0 23.57 30">
  <g id="グループ_5234" data-name="グループ 5234" transform="translate(-312 -739.504)">
    <g id="clipboard_1_" data-name="clipboard (1)" transform="translate(264.963 739.556)">
      <g id="グループ_5214" data-name="グループ 5214" transform="translate(47.037 0)">
        <g id="グループ_5213" data-name="グループ 5213" transform="translate(0 0)">
          <path id="パス_3772" data-name="パス 3772" d="M54.179,3.574h1.964a.786.786,0,0,0,.679-.643,2.071,2.071,0,0,1,1.964-1.607,2.035,2.035,0,0,1,1.928,1.607.786.786,0,0,0,.714.643h2.036V6.431H54.179Zm15,23.713a1.449,1.449,0,0,1-1.571,1.286H50.037a1.449,1.449,0,0,1-1.571-1.286V6.823a1.607,1.607,0,0,1,1.571-1.464h2.714V7.181a.75.75,0,0,0,.786.679H64.072a.786.786,0,0,0,.821-.679V5.359h2.714a1.607,1.607,0,0,1,1.571,1.464V27.286Z" transform="translate(-47.037 0)" fill="#fff"/>
        </g>
      </g>
    </g>
    <g id="clipboard_1_2" data-name="clipboard (1)" transform="translate(264.963 739.504)">
      <g id="グループ_5214-2" data-name="グループ 5214" transform="translate(47.037 0)">
        <g id="グループ_5213-2" data-name="グループ 5213" transform="translate(0 0)">
          <path id="パス_3772-2" data-name="パス 3772" d="M67.607,3.931H64.893V2.717c0-.393-.429-.571-.821-.571H61.965A3.194,3.194,0,0,0,58.786,0a3.25,3.25,0,0,0-3.178,2.143H53.537c-.393,0-.786.179-.786.571V3.931H50.037a3.036,3.036,0,0,0-3,2.893V27.286a2.873,2.873,0,0,0,3,2.714h17.57a2.873,2.873,0,0,0,3-2.714V6.823A3.036,3.036,0,0,0,67.607,3.931ZM54.179,3.574h1.964a.786.786,0,0,0,.679-.643,2.071,2.071,0,0,1,1.964-1.607,2.035,2.035,0,0,1,1.928,1.607.786.786,0,0,0,.714.643h2.036V6.431H54.179Zm15,23.713a1.449,1.449,0,0,1-1.571,1.286H50.037a1.449,1.449,0,0,1-1.571-1.286V6.823a1.607,1.607,0,0,1,1.571-1.464h2.714V7.181a.75.75,0,0,0,.786.679H64.072a.786.786,0,0,0,.821-.679V5.359h2.714a1.607,1.607,0,0,1,1.571,1.464V27.286Z" transform="translate(-47.037 0)" fill="#0068b7"/>
          <path id="パス_3773" data-name="パス 3773" d="M104.838,230.534a.714.714,0,0,0-1-.036l-2.286,2.178-.964-1a.714.714,0,0,0-1-.036.75.75,0,0,0,0,1.036l1.464,1.5a.643.643,0,0,0,.5.214.714.714,0,0,0,.5-.214l2.786-2.643a.678.678,0,0,0,.041-.959Q104.86,230.554,104.838,230.534Z" transform="translate(-95.803 -214.569)" fill="#0068b7"/>
          <path id="パス_3774" data-name="パス 3774" d="M207.476,256.034h-8.214a.714.714,0,1,0,0,1.428h8.214a.714.714,0,0,0,0-1.428Z" transform="translate(-188.192 -238.533)" fill="#0068b7"/>
          <path id="パス_3775" data-name="パス 3775" d="M104.838,146.942a.714.714,0,0,0-1-.036l-2.286,2.178-.964-1a.714.714,0,0,0-1-.036.75.75,0,0,0,0,1.036l1.464,1.5a.643.643,0,0,0,.5.214.714.714,0,0,0,.5-.214l2.786-2.643a.678.678,0,0,0,.041-.959Q104.86,146.962,104.838,146.942Z" transform="translate(-95.803 -136.69)" fill="#0068b7"/>
          <path id="パス_3776" data-name="パス 3776" d="M207.476,172.442h-8.214a.714.714,0,1,0,0,1.428h8.214a.714.714,0,0,0,0-1.428Z" transform="translate(-188.192 -160.655)" fill="#0068b7"/>
          <path id="パス_3777" data-name="パス 3777" d="M104.838,314.125a.714.714,0,0,0-1-.036l-2.286,2.178-.964-1a.714.714,0,0,0-1-.036.75.75,0,0,0,0,1.036l1.464,1.5a.643.643,0,0,0,.5.214.714.714,0,0,0,.5-.214l2.786-2.643a.678.678,0,0,0,.041-.959Q104.86,314.145,104.838,314.125Z" transform="translate(-95.803 -292.446)" fill="#0068b7"/>
          <path id="パス_3778" data-name="パス 3778" d="M207.476,339.626h-8.214a.714.714,0,1,0,0,1.428h8.214a.714.714,0,0,0,0-1.428Z" transform="translate(-188.192 -316.411)" fill="#0068b7"/>
        </g>
      </g>
    </g>
  </g>
</svg>
