<svg xmlns="http://www.w3.org/2000/svg" width="30.38" height="31.284" viewBox="0 0 30.38 31.284">
  <g id="グループ_5244" data-name="グループ 5244" transform="matrix(0.966, 0.259, -0.259, 0.966, -179.818, -678.002)">
    <path id="パス_3799" data-name="パス 3799" d="M20.727,16.237v-5.7a8.751,8.751,0,0,0-8.634-8.558,8.751,8.751,0,0,0-8.634,8.558v5.7c0,4.564-3.084,8.556-3.084,8.556H23.811S20.727,20.8,20.727,16.237Z" transform="translate(355.625 605.506)" fill="#fff" stroke="#1a69b2" stroke-linecap="round" stroke-linejoin="round" stroke-width="1.5"/>
    <path id="パス_3800" data-name="パス 3800" d="M10.459,24.175h0a3.083,3.083,0,0,1-3.084-3.084v-.617h6.167v.617A3.083,3.083,0,0,1,10.459,24.175Z" transform="translate(357.259 609.825)" fill="#fff" stroke="#1a69b2" stroke-linecap="round" stroke-linejoin="round" stroke-width="1.5"/>
    <path id="パス_3801" data-name="パス 3801" d="M10.108.375h0a1.234,1.234,0,0,1,1.233,1.233v.247H8.875V1.608A1.234,1.234,0,0,1,10.108.375Z" transform="translate(357.609 605.625)" fill="#fff" stroke="#1a69b2" stroke-linecap="round" stroke-linejoin="round" stroke-width="1.5"/>
  </g>
</svg>
