<svg xmlns="http://www.w3.org/2000/svg" xmlns:xlink="http://www.w3.org/1999/xlink" width="48" height="48" viewBox="0 0 48 48"><defs><clipPath id="a"><rect width="48" height="48" fill="none"/></clipPath></defs><g clip-path="url(#a)"><path d="M48,24A24,24,0,1,1,24,0,24,24,0,0,1,48,24" fill="#00b900"/><path d="M52.018,36.965c0-7.143-7.161-12.955-15.964-12.955S20.09,29.822,20.09,36.965c0,6.4,5.679,11.767,13.351,12.781.52.112,1.228.343,1.407.787a3.278,3.278,0,0,1,.051,1.444s-.187,1.126-.228,1.366c-.069.4-.32,1.578,1.383.861S45.247,48.79,48.6,44.936h0a11.527,11.527,0,0,0,3.422-7.971" transform="translate(-12.054 -14.406)" fill="#fff"/><path d="M49.745,47.768h-1.12a.311.311,0,0,0-.311.31v6.956a.31.31,0,0,0,.311.31h1.12a.31.31,0,0,0,.311-.31V48.078a.311.311,0,0,0-.311-.31" transform="translate(-28.988 -28.661)" fill="#00b900"/><path d="M61.7,47.768h-1.12a.311.311,0,0,0-.311.31v4.132l-3.188-4.3c-.007-.011-.016-.021-.024-.032l0,0-.019-.019-.006-.006-.017-.014L57,47.828l-.016-.011-.01-.006-.016-.009-.01,0-.018-.008-.01,0-.018-.006-.011,0-.018,0-.013,0-.016,0H55.7a.311.311,0,0,0-.311.31v6.956a.31.31,0,0,0,.311.31h1.12a.311.311,0,0,0,.311-.31V50.9l3.192,4.31a.31.31,0,0,0,.079.076l0,0,.019.012.009,0,.015.008.015.006.01,0,.021.007h0a.306.306,0,0,0,.08.01H61.7a.31.31,0,0,0,.311-.31V48.078a.311.311,0,0,0-.311-.31" transform="translate(-33.234 -28.661)" fill="#00b900"/><path d="M37.967,53.6H34.925V48.078a.311.311,0,0,0-.311-.31h-1.12a.311.311,0,0,0-.311.31v6.955h0a.308.308,0,0,0,.087.215l0,0,0,0a.309.309,0,0,0,.215.086h4.474a.311.311,0,0,0,.31-.311v-1.12a.311.311,0,0,0-.31-.311" transform="translate(-19.91 -28.661)" fill="#00b900"/><path d="M79.442,49.51a.311.311,0,0,0,.31-.311v-1.12a.311.311,0,0,0-.31-.311H74.968a.306.306,0,0,0-.215.088l0,0-.005.006a.308.308,0,0,0-.086.214h0v6.954h0a.308.308,0,0,0,.087.215l0,0,0,0a.308.308,0,0,0,.215.087h4.474a.311.311,0,0,0,.31-.311v-1.12a.311.311,0,0,0-.31-.311H76.4V52.427h3.042a.31.31,0,0,0,.31-.311V51a.311.311,0,0,0-.31-.311H76.4V49.51Z" transform="translate(-44.795 -28.661)" fill="#00b900"/></g></svg>
