<svg xmlns="http://www.w3.org/2000/svg" width="37.5" height="28.195" viewBox="0 0 37.5 28.195">
  <g id="グループ_5254" data-name="グループ 5254" transform="translate(-173.251 -17.555)">
    <g id="グループ_5253" data-name="グループ 5253" transform="translate(17.626 -730.07)">
      <path id="パス_3805" data-name="パス 3805" d="M20.2,2.375h3.13a1.056,1.056,0,0,1,1.043,1.061V22.543A1.056,1.056,0,0,1,23.332,23.6H1.418A1.056,1.056,0,0,1,.375,22.543V3.436A1.056,1.056,0,0,1,1.418,2.375H20.2Z" transform="translate(156 747.728)" fill="#fff" stroke="#1a69b2" stroke-linecap="round" stroke-linejoin="round" stroke-width="1.5"/>
      <line id="線_131" data-name="線 131" y2="3.455" transform="translate(162.636 748.375)" fill="none" stroke="#1a69b2" stroke-linecap="round" stroke-linejoin="round" stroke-width="1.5"/>
      <line id="線_133" data-name="線 133" y2="3.455" transform="translate(174.114 748.375)" fill="none" stroke="#1a69b2" stroke-linecap="round" stroke-linejoin="round" stroke-width="1.5"/>
      <line id="線_132" data-name="線 132" x2="24" transform="translate(156.375 755.68)" fill="none" stroke="#1a69b2" stroke-linecap="round" stroke-linejoin="round" stroke-width="1.5"/>
    </g>
    <g id="グループ_5242" data-name="グループ 5242" transform="translate(-11553.374 8922.91)">
      <circle id="楕円形_129" data-name="楕円形 129" cx="8.5" cy="8.5" r="8.5" transform="translate(11746.375 -8894.91)" fill="#fff" stroke="#1a69b2" stroke-linecap="round" stroke-linejoin="round" stroke-width="1.5"/>
      <line id="線_111" data-name="線 111" y2="5.243" transform="translate(11754.614 -8891.628)" fill="none" stroke="#1a69b2" stroke-linecap="round" stroke-linejoin="round" stroke-width="1.5"/>
      <line id="線_112" data-name="線 112" x1="4.261" y2="0.024" transform="translate(11754.614 -8886.41)" fill="none" stroke="#1a69b2" stroke-linecap="round" stroke-linejoin="round" stroke-width="1.5"/>
    </g>
  </g>
</svg>
